<?xml version="1.0" encoding="UTF-8" standalone="no"?>
<svg
   xmlns:dc="http://purl.org/dc/elements/1.1/"
   xmlns:cc="http://creativecommons.org/ns#"
   xmlns:rdf="http://www.w3.org/1999/02/22-rdf-syntax-ns#"
   xmlns:svg="http://www.w3.org/2000/svg"
   xmlns="http://www.w3.org/2000/svg"
   xmlns:xlink="http://www.w3.org/1999/xlink"
   id="svg4670"
   version="1.1"
   viewBox="0 0 211.66666 211.66667"
   height="800"
   width="800">
  <defs
     id="defs4664">
    <linearGradient
       id="linearGradient13253">
      <stop
         id="stop13249"
         offset="0"
         style="stop-color:#726f00;stop-opacity:1" />
      <stop
         id="stop13251"
         offset="1"
         style="stop-color:#384000;stop-opacity:1" />
    </linearGradient>
    <linearGradient
       id="linearGradient13247">
      <stop
         id="stop13243"
         offset="0"
         style="stop-color:#758800;stop-opacity:1" />
      <stop
         id="stop13245"
         offset="1"
         style="stop-color:#485700;stop-opacity:1" />
    </linearGradient>
    <linearGradient
       id="linearGradient13241">
      <stop
         style="stop-color:#756f00;stop-opacity:1"
         offset="0"
         id="stop13237" />
      <stop
         style="stop-color:#484000;stop-opacity:1"
         offset="1"
         id="stop13239" />
    </linearGradient>
    <radialGradient
       gradientUnits="userSpaceOnUse"
       gradientTransform="matrix(13.076936,-6.5683855,7.4737286,13.836569,-2173.7729,-3703.712)"
       r="10.021057"
       fy="286.51501"
       fx="10.558851"
       cy="286.51501"
       cx="10.558851"
       id="radialGradient5252"
       xlink:href="#linearGradient13241" />
    <radialGradient
       gradientUnits="userSpaceOnUse"
       gradientTransform="matrix(7.3820044,-7.1089024,8.4872082,7.1223872,-2408.4143,-1787.257)"
       r="10.021057"
       fy="286.51501"
       fx="10.558851"
       cy="286.51501"
       cx="10.558851"
       id="radialGradient5252-1"
       xlink:href="#linearGradient13247" />
    <radialGradient
       gradientUnits="userSpaceOnUse"
       gradientTransform="matrix(0.65093196,-0.62471207,0.74838685,0.62589708,-211.20615,113.58276)"
       r="10.021057"
       fy="286.51501"
       fx="10.558851"
       cy="286.51501"
       cx="10.558851"
       id="radialGradient5252-1-2"
       xlink:href="#linearGradient13241" />
    <radialGradient
       gradientUnits="userSpaceOnUse"
       gradientTransform="matrix(7.6189786,-7.0057938,8.759661,7.019083,-2480.7399,-1732.3171)"
       r="10.021057"
       fy="286.51501"
       fx="10.558851"
       cy="286.51501"
       cx="10.558851"
       id="radialGradient5252-1-2-8"
       xlink:href="#linearGradient13253" />
    <radialGradient
       gradientUnits="userSpaceOnUse"
       gradientTransform="matrix(0.66892842,-0.62471207,0.76907768,0.62589708,-216.61362,114.45682)"
       r="10.021057"
       fy="286.51501"
       fx="10.558851"
       cy="286.51501"
       cx="10.558851"
       id="radialGradient5252-1-2-8-9"
       xlink:href="#linearGradient13241" />
    <filter
       height="1.1256465"
       y="-0.062823236"
       width="1.1148392"
       x="-0.057419602"
       id="filter6158"
       style="color-interpolation-filters:sRGB">
      <feGaussianBlur
         id="feGaussianBlur6160"
         stdDeviation="0.33612898" />
    </filter>
    <filter
       height="1.1238804"
       y="-0.061940175"
       width="1.1163554"
       x="-0.05817768"
       id="filter6182"
       style="color-interpolation-filters:sRGB">
      <feGaussianBlur
         id="feGaussianBlur6184"
         stdDeviation="0.33140427" />
    </filter>
  </defs>
  <metadata
     id="metadata4667">
    <rdf:RDF>
      <cc:Work
         rdf:about="">
        <dc:format>image/svg+xml</dc:format>
        <dc:type
           rdf:resource="http://purl.org/dc/dcmitype/StillImage" />
        <dc:title></dc:title>
      </cc:Work>
    </rdf:RDF>
  </metadata>
  <g
     transform="translate(0,-85.33332)"
     id="layer1">
    <path
       id="path4678"
       d="m 146.39476,107.68853 c 0,0 -10.98271,-31.466634 -42.76367,-11.765659 C 93.13286,86.027245 58.68042,74.459836 49.448464,108.53682 25.334527,102.55001 13.377065,119.7928 23.414017,137.27623 5.2516632,145.06039 -7.8655949,157.46639 5.5039179,183.0081 c -11.8559831,19.46044 -2.7748047,40.36621 20.5241171,42.56956 -11.282151,28.71832 12.94039,44.09818 32.981085,36.50498 -2.416065,31.29947 29.878635,34.49707 52.58158,25.01024 19.42364,19.94682 57.89607,6.64584 54.3645,-12.57135 34.26952,3.172 45.75963,-25.67169 29.74895,-48.94387 17.48598,-4.69243 23.22353,-38.15306 3.63411,-48.87278 19.97744,-14.38491 7.5998,-35.35966 -12.71528,-38.45569 15.51222,-24.33512 -11.49118,-45.352162 -40.22822,-30.56066 z"
       style="opacity:1;fill:url(#radialGradient5252);fill-opacity:1;stroke:none;stroke-width:1.7301755;stroke-linecap:butt;stroke-linejoin:miter;stroke-miterlimit:4;stroke-dasharray:none;stroke-opacity:1" />
    <path
       id="path4678-0"
       d="m 123.12795,119.33412 c 0,0 -21.97584,-31.221696 -46.410155,-1.1906 -8.935457,-5.45814 -32.414663,4.31672 -29.306268,22.94976 -25.948748,0.67683 -35.701763,40.74981 -7.367103,54.42829 -14.360963,14.86259 -0.608818,34.33232 17.206139,24.31353 -5.570127,17.61699 25.131091,25.42324 36.931563,15.175 13.430684,28.96626 63.727084,15.87494 61.594094,-13.78895 19.48262,-9.66988 29.66276,-25.34706 15.599,-41.27978 11.10089,-8.67143 3.08678,-38.92547 -15.34121,-35.16681 6.7252,-25.39065 -20.2122,-34.70303 -32.90606,-25.44044 z"
       style="opacity:1;fill:url(#radialGradient5252-1);fill-opacity:1;stroke:none;stroke-width:1.21563578;stroke-linecap:butt;stroke-linejoin:miter;stroke-miterlimit:4;stroke-dasharray:none;stroke-dashoffset:0;stroke-opacity:1" />
    <path
       transform="matrix(11.704723,0,0,11.565333,-13.607729,-3129.1966)"
       id="path4678-0-7"
       d="m 12.020732,281.12908 c 0,0 -1.937789,-2.74369 -4.092366,-0.10463 -0.7879126,-0.47965 -2.8582675,0.37933 -2.5841748,2.01676 -2.2881144,0.0594 -3.1481178,3.58099 -0.6496178,4.78303 -1.2663243,1.30608 -0.053684,3.01703 1.5172064,2.1366 -0.4911639,1.54814 2.216015,2.23413 3.2565591,1.33354 1.1842961,2.54548 5.6193421,1.39506 5.4312591,-1.21173 1.717943,-0.84977 2.615611,-2.22744 1.375493,-3.62757 0.978857,-0.76202 0.272187,-3.42067 -1.35276,-3.09037 0.593017,-2.23126 -1.782277,-3.0496 -2.901599,-2.23563 z"
       style="opacity:1;fill:url(#radialGradient5252-1-2);fill-opacity:1;stroke:none;stroke-width:0.1070096;stroke-linecap:butt;stroke-linejoin:miter;stroke-miterlimit:4;stroke-dasharray:none;stroke-dashoffset:0;stroke-opacity:1;filter:url(#filter6182)" />
    <path
       id="path4678-0-7-7"
       d="m 132.06873,146.6207 c 0,0 -22.68129,-30.76901 -47.900021,-1.17331 -9.2223,-5.37915 -33.45523,4.25374 -30.247049,22.61675 -26.781746,0.66683 -36.847848,40.15876 -7.603595,53.63899 -14.821978,14.64684 -0.628363,33.83424 17.758478,23.96071 -5.748937,17.36156 25.937843,25.05454 38.117117,14.95486 13.86186,28.54617 65.77285,15.64489 63.57139,-13.5888 20.10804,-9.52972 30.61499,-24.97956 16.09976,-40.68103 11.45725,-8.54577 3.18587,-38.36101 -15.83368,-34.65684 6.9411,-25.02244 -20.86105,-34.19955 -33.9624,-25.07133 z"
       style="opacity:1;fill:url(#radialGradient5252-1-2-8);fill-opacity:1;stroke:none;stroke-width:1.2260046;stroke-linecap:butt;stroke-linejoin:miter;stroke-miterlimit:4;stroke-dasharray:none;stroke-dashoffset:0;stroke-opacity:1" />
    <path
       transform="matrix(10.678131,0,0,10.708539,-7.1088299,-2879.7507)"
       id="path4678-0-7-7-3"
       d="m 12.784851,282.00315 c 0,0 -1.991363,-2.74369 -4.2055083,-0.10463 -0.8096956,-0.47965 -2.9372902,0.37933 -2.6556197,2.01676 -2.3513743,0.0594 -3.2351545,3.58099 -0.6675778,4.78303 -1.3013348,1.30608 -0.055168,3.01703 1.5591528,2.1366 -0.5047432,1.54814 2.2772815,2.23413 3.346593,1.33354 1.217039,2.54548 5.774703,1.39506 5.58142,-1.21173 1.765439,-0.84977 2.687925,-2.22744 1.413522,-3.62757 1.005919,-0.76202 0.279712,-3.42067 -1.390161,-3.09037 0.609413,-2.23126 -1.831553,-3.0496 -2.981821,-2.23563 z"
       style="opacity:1;fill:url(#radialGradient5252-1-2-8-9);fill-opacity:1;stroke:none;stroke-width:0.10847877;stroke-linecap:butt;stroke-linejoin:miter;stroke-miterlimit:4;stroke-dasharray:none;stroke-dashoffset:0;stroke-opacity:1;filter:url(#filter6158)" />
  </g>
</svg>
