<?xml version="1.0" encoding="UTF-8" standalone="no"?>
<svg
   xmlns:dc="http://purl.org/dc/elements/1.1/"
   xmlns:cc="http://creativecommons.org/ns#"
   xmlns:rdf="http://www.w3.org/1999/02/22-rdf-syntax-ns#"
   xmlns:svg="http://www.w3.org/2000/svg"
   xmlns="http://www.w3.org/2000/svg"
   id="svg8"
   version="1.1"
   viewBox="0 0 21.166666 21.166667"
   height="80"
   width="80">
  <defs
     id="defs2" />
  <metadata
     id="metadata5">
    <rdf:RDF>
      <cc:Work
         rdf:about="">
        <dc:format>image/svg+xml</dc:format>
        <dc:type
           rdf:resource="http://purl.org/dc/dcmitype/StillImage" />
        <dc:title></dc:title>
      </cc:Work>
    </rdf:RDF>
  </metadata>
  <g
     transform="translate(0,-275.83332)"
     id="layer1">
    <path
       transform="matrix(1.7300351,0,0,1.7273009,-0.00322187,-200.63082)"
       style="stroke-width:0.26458332;fill:#004600;fill-opacity:1"
       d="m 11.258729,285.27352 -1.7747467,0.17677 -0.5682741,1.95259 -1.6253565,-0.7343 -1.4684362,1.40686 -1.0404529,-1.44859 -1.9751321,0.48415 -0.1767607,-1.77474 -1.95259285,-0.56828 0.73429435,-1.62535 -1.40685799,-1.46844 1.44859579,-1.04045 -0.48415661,-1.97514 1.77474721,-0.17676 0.5682741,-1.95259 1.6253564,0.73429 1.4684363,-1.40685 1.0404528,1.44859 1.9751322,-0.48415 0.1767606,1.77474 1.9525929,0.56828 -0.734294,1.62535 1.406858,1.46844 -1.448596,1.04045 z"
       id="path46" />
    <path
       transform="matrix(1.4854946,-0.37238421,0.38708956,1.5441564,-107.43787,-146.513)"
       style="fill:#005300;fill-opacity:1;stroke-width:0.26458332"
       d="m 11.258729,285.27352 -1.7747467,0.17677 -0.5682741,1.95259 -1.6253565,-0.7343 -1.4684362,1.40686 -1.0404529,-1.44859 -1.9751321,0.48415 -0.1767607,-1.77474 -1.95259285,-0.56828 0.73429435,-1.62535 -1.40685799,-1.46844 1.44859579,-1.04045 -0.48415661,-1.97514 1.77474721,-0.17676 0.5682741,-1.95259 1.6253564,0.73429 1.4684363,-1.40685 1.0404528,1.44859 1.9751322,-0.48415 0.1767606,1.77474 1.9525929,0.56828 -0.734294,1.62535 1.406858,1.46844 -1.448596,1.04045 z"
       id="path46-0" />
    <path
       transform="matrix(1.4236026,0.1192899,-0.12400061,1.4798203,37.002484,-131.25356)"
       style="fill:#005a00;fill-opacity:1;stroke-width:0.26458332"
       d="m 11.258729,285.27352 -1.7747467,0.17677 -0.5682741,1.95259 -1.6253565,-0.7343 -1.4684362,1.40686 -1.0404529,-1.44859 -1.9751321,0.48415 -0.1767607,-1.77474 -1.95259285,-0.56828 0.73429435,-1.62535 -1.40685799,-1.46844 1.44859579,-1.04045 -0.48415661,-1.97514 1.77474721,-0.17676 0.5682741,-1.95259 1.6253564,0.73429 1.4684363,-1.40685 1.0404528,1.44859 1.9751322,-0.48415 0.1767606,1.77474 1.9525929,0.56828 -0.734294,1.62535 1.406858,1.46844 -1.448596,1.04045 z"
       id="path46-0-9" />
    <path
       transform="matrix(1.2313922,0.54878403,-0.61048187,1.1960943,175.58937,-54.25472)"
       style="fill:#006400;fill-opacity:1;stroke-width:0.26458332"
       d="m 11.258729,285.27352 -2.5741677,0.14611 -0.3525041,2.24635 -2.1684261,-1.39486 -1.6055485,1.61013 -0.9344189,-2.40303 -2.245328,0.35891 0.6565046,-2.49333 -2.02746848,-1.02941 1.99666558,-1.63126 -1.03518491,-2.02453 2.57416821,-0.1461 0.3525041,-2.24635 2.1684261,1.39486 1.6055485,-1.61013 0.9344188,2.40303 2.2453278,-0.35891 -0.656504,2.49333 2.027468,1.02941 -1.996665,1.63126 z"
       id="path46-0-9-9" />
    <path
       transform="matrix(0.92592077,-0.62047689,0.56862359,0.95357668,-155.00578,21.41951)"
       style="fill:#007200;fill-opacity:1;stroke-width:0.26458332"
       d="m 11.258729,285.27352 -2.5741677,0.14611 -0.3525041,2.24635 -2.1684261,-1.39486 -1.6055485,1.61013 -0.9344189,-2.40303 -2.245328,0.35891 0.6565046,-2.49333 -2.02746848,-1.02941 1.99666558,-1.63126 -1.03518491,-2.02453 2.57416821,-0.1461 0.3525041,-2.24635 2.1684261,1.39486 1.6055485,-1.61013 0.9344188,2.40303 2.2453278,-0.35891 -0.656504,2.49333 2.027468,1.02941 -1.996665,1.63126 z"
       id="path46-0-9-9-1" />
    <path
       transform="matrix(1.1050602,0.08723066,-0.08167852,1.0347243,21.752209,-10.722615)"
       d="m 15.812576,290.85863 -3.354454,-2.08009 -0.995103,3.62732 -0.90111,-3.8428 -3.268549,1.86126 2.0800928,-3.35446 -3.6273237,-0.9951 3.8428048,-0.90111 -1.8612609,-3.26855 3.354454,2.08009 0.995103,-3.62732 0.90111,3.84281 3.268549,-1.86126 -2.080093,3.35445 3.627324,0.9951 -3.842805,0.90111 z"
       id="path4615"
       style="fill:#007a00;fill-opacity:1;stroke-width:0.26458332" />
    <path
       transform="matrix(0.94034615,0.2590145,-0.24252851,0.88049409,69.733027,31.20728)"
       d="m 15.812576,290.85863 -3.782574,-2.75734 -1.239526,4.23231 -0.202617,-4.67651 -4.0817872,1.6697 3.5299142,-3.07417 -3.8503797,-2.15022 4.6043487,0.84308 -0.719558,-4.35099 2.211614,4.12548 2.953106,-3.27538 -1.84651,4.30131 4.40202,0.26667 -4.514175,1.23816 z"
       id="path4615-4"
       style="fill:#006a00;fill-opacity:1;stroke-width:0.26458332" />
    <path
       transform="matrix(0.57431671,0.15819319,-0.14812436,0.53776206,47.128886,130.49141)"
       d="m 15.812576,290.85863 -3.782574,-2.75734 -1.239526,4.23231 -0.202617,-4.67651 -4.0817872,1.6697 3.5299142,-3.07417 -3.8503797,-2.15022 4.6043487,0.84308 -0.719558,-4.35099 2.211614,4.12548 2.953106,-3.27538 -1.84651,4.30131 4.40202,0.26667 -4.514175,1.23816 z"
       id="path4615-4-6"
       style="fill:#007100;fill-opacity:1;stroke-width:0.26458332" />
    <path
       transform="matrix(0.33692754,0.01527142,-0.01429942,0.31548246,11.58072,195.94863)"
       d="m 15.812576,290.85863 -3.782574,-2.75734 -1.239526,4.23231 -0.202617,-4.67651 -4.0817872,1.6697 3.5299142,-3.07417 -3.8503797,-2.15022 4.6043487,0.84308 -0.719558,-4.35099 2.211614,4.12548 2.953106,-3.27538 -1.84651,4.30131 4.40202,0.26667 -4.514175,1.23816 z"
       id="path4615-4-6-4"
       style="fill:#007a00;fill-opacity:1;stroke-width:0.26458332" />
  </g>
</svg>
